<svg xmlns="http://www.w3.org/2000/svg" width="717.061" height="209.055" viewBox="0 0 717.061 209.055">
  <g id="logmais" transform="translate(-510.939 -1486)">
    <path id="Subtração_8" data-name="Subtração 8" d="M515.8,182.819a122.682,122.682,0,0,1-19.489-1.49,95.14,95.14,0,0,1-17.387-4.471,80.915,80.915,0,0,1-15.285-7.451,78.2,78.2,0,0,1-13.183-10.432,76.459,76.459,0,0,1-10.615-13,78.68,78.68,0,0,1-7.582-15.154,92.623,92.623,0,0,1-4.549-17.308,120.114,120.114,0,0,1-1.516-19.463,114.356,114.356,0,0,1,1.652-19.726A93.9,93.9,0,0,1,432.8,56.47a86.007,86.007,0,0,1,8.258-15.987,89.673,89.673,0,0,1,11.561-14.117,85.87,85.87,0,0,1,30.69-19.774,99.31,99.31,0,0,1,18.543-4.944A125.26,125.26,0,0,1,522.524,0a162.78,162.78,0,0,1,26.486,2.042,113.872,113.872,0,0,1,22.762,6.126V41.441c-13.549-8.209-30.441-12.372-50.209-12.372-17.455,0-31.863,5.84-42.822,17.357S462.225,73.36,462.225,92.25c0,19.289,5.011,34.5,14.894,45.224s23.624,16.156,40.84,16.156c10.521,0,19.412-1.738,26.426-5.165V109.427H508.109V81.56h70.629v86.124a101.773,101.773,0,0,1-13.709,6.622,113.419,113.419,0,0,1-15.06,4.73A146.677,146.677,0,0,1,515.8,182.819ZM125,171.581h0V2.883H159.23V151.348h66.905V162.4c-36.213.872-70.24,3.961-101.138,9.182Zm246.077-2.358h0c-36.664-3.992-72.138-6.321-105.436-6.923-1.585-1.446-3.145-2.989-4.639-4.586a83.453,83.453,0,0,1-17.612-28.588,93.7,93.7,0,0,1-4.4-16.907,114.922,114.922,0,0,1-1.468-18.648,127.22,127.22,0,0,1,1.5-19.857,101.2,101.2,0,0,1,4.493-17.89A87.906,87.906,0,0,1,251,39.9a85.82,85.82,0,0,1,10.484-13.956,80,80,0,0,1,12.969-11.351,76.813,76.813,0,0,1,14.943-8.108,85.222,85.222,0,0,1,16.918-4.865A106.406,106.406,0,0,1,325.2,0,99.066,99.066,0,0,1,343.14,1.573a80.176,80.176,0,0,1,16.1,4.718,73.36,73.36,0,0,1,14.26,7.864,77.641,77.641,0,0,1,12.421,11.01,83.858,83.858,0,0,1,17.252,28.723,96.356,96.356,0,0,1,4.313,17.03,119.208,119.208,0,0,1,1.438,18.81,127.623,127.623,0,0,1-1.483,19.793,101.185,101.185,0,0,1-4.448,17.819,87.5,87.5,0,0,1-7.414,15.844,84.993,84.993,0,0,1-10.379,13.87,79.33,79.33,0,0,1-14.126,12.169ZM324.12,29.789c-15.621,0-28.089,5.88-37.056,17.477S273.551,73.8,273.551,91.65s4.466,32.706,13.273,44.143,20.952,17.237,36.1,17.237c15.7,0,28.088-5.517,36.815-16.4s13.154-25.853,13.154-44.5c0-19.208-4.284-34.566-12.732-45.645S339.582,29.789,324.12,29.789Z" transform="translate(447.024 1486)" fill="#ecc67f"/>
    <g id="Grupo_2442" data-name="Grupo 2442" transform="translate(-37.5 26)">
      <rect id="Retângulo_2473" data-name="Retângulo 2473" width="34" height="177" transform="translate(1160 1463)" fill="#ecc67f"/>
      <rect id="Retângulo_2474" data-name="Retângulo 2474" width="34" height="177" transform="translate(1265.5 1534.5) rotate(90)" fill="#ecc67f"/>
    </g>
    <path id="Caminho_234" data-name="Caminho 234" d="M541,1691.817s146.406-37.021,345.084,0" transform="translate(-7 -26)" fill="none" stroke="#ecc67f" stroke-linecap="round" stroke-width="6"/>
    <path id="Caminho_236" data-name="Caminho 236" d="M541,1691.817s146.406-37.021,345.084,0" transform="matrix(0.996, -0.087, 0.087, 0.996, -173.019, 53.824)" fill="none" stroke="#ecc67f" stroke-linecap="round" stroke-width="6"/>
    <path id="Caminho_235" data-name="Caminho 235" d="M1156.122,1489h-33.676l33.676,176.885v-71.4h71.771v-34.465h-71.771Z" fill="#d8aa53"/>
  </g>
</svg>
