<svg xmlns="http://www.w3.org/2000/svg" width="279.899" height="83.37" viewBox="0 0 279.899 83.37">
  <g id="logmais" transform="translate(-508.046 -1486)">
    <path id="Subtração_8" data-name="Subtração 8" d="M150.634,70.467a47.287,47.287,0,0,1-7.512-.574,36.671,36.671,0,0,1-6.7-1.723,31.189,31.189,0,0,1-5.892-2.872,30.144,30.144,0,0,1-5.081-4.021,29.472,29.472,0,0,1-4.092-5.01,30.328,30.328,0,0,1-2.923-5.841,35.7,35.7,0,0,1-1.754-6.671,46.3,46.3,0,0,1-.584-7.5,44.079,44.079,0,0,1,.637-7.6,36.193,36.193,0,0,1,1.91-6.883,33.152,33.152,0,0,1,3.183-6.162,34.563,34.563,0,0,1,4.456-5.442A33.1,33.1,0,0,1,138.11,2.541,38.279,38.279,0,0,1,145.257.635,48.281,48.281,0,0,1,153.227,0a62.743,62.743,0,0,1,10.209.787,43.892,43.892,0,0,1,8.774,2.361V15.973c-5.222-3.164-11.733-4.769-19.353-4.769-6.728,0-12.281,2.251-16.506,6.69s-6.366,10.382-6.366,17.663c0,7.435,1.932,13.3,5.741,17.432s9.106,6.227,15.742,6.227a23.234,23.234,0,0,0,10.186-1.991V42.178H147.671V31.437h27.224v33.2a39.228,39.228,0,0,1-5.284,2.552,43.717,43.717,0,0,1-5.8,1.823A56.536,56.536,0,0,1,150.634,70.467ZM0,66.136H0V1.111H13.2V58.337H38.984V62.6A275.413,275.413,0,0,0,0,66.136Zm94.85-.909h0c-14.132-1.539-27.806-2.436-40.64-2.668C53.6,62,53,61.406,52.422,60.791a32.167,32.167,0,0,1-6.788-11.019,36.115,36.115,0,0,1-1.7-6.517,44.3,44.3,0,0,1-.566-7.188,49.037,49.037,0,0,1,.577-7.654,39.006,39.006,0,0,1,1.732-6.9,33.883,33.883,0,0,1,2.887-6.138A33.079,33.079,0,0,1,52.607,10a30.838,30.838,0,0,1,5-4.375A29.608,29.608,0,0,1,63.366,2.5,32.849,32.849,0,0,1,69.887.625,41.014,41.014,0,0,1,77.169,0a38.185,38.185,0,0,1,6.914.606,30.9,30.9,0,0,1,6.205,1.819,28.276,28.276,0,0,1,5.5,3.031A29.927,29.927,0,0,1,100.573,9.7a32.323,32.323,0,0,1,6.65,11.071,37.139,37.139,0,0,1,1.663,6.564,45.949,45.949,0,0,1,.554,7.25,49.192,49.192,0,0,1-.572,7.629,39,39,0,0,1-1.715,6.868A33.725,33.725,0,0,1,104.3,55.19a32.762,32.762,0,0,1-4,5.346,30.578,30.578,0,0,1-5.445,4.69Zm-18.1-53.745c-6.021,0-10.827,2.266-14.283,6.737S57.26,28.445,57.26,35.326s1.721,12.606,5.116,17.015a16.691,16.691,0,0,0,13.913,6.644c6.052,0,10.827-2.126,14.19-6.32s5.07-9.965,5.07-17.154c0-7.4-1.651-13.323-4.908-17.594S82.712,11.482,76.752,11.482Z" transform="translate(535.098 1486)" fill="#434c58"/>
    <g id="Grupo_2442" data-name="Grupo 2442" transform="translate(719.72 1487.156)">
      <path id="Caminho_237" data-name="Caminho 237" d="M0,0H13.105V68.225H0Z" transform="translate(27.56 0)" fill="#434c58"/>
      <rect id="Retângulo_2474" data-name="Retângulo 2474" width="13.105" height="68.225" transform="translate(68.225 27.56) rotate(90)" fill="#434c58"/>
    </g>
    <path id="Caminho_234" data-name="Caminho 234" d="M541,1681.706s56.432-14.27,133.012,0" transform="translate(-20.557 -126.395)" fill="none" stroke="#434c58" stroke-linecap="round" stroke-width="6"/>
    <path id="Caminho_236" data-name="Caminho 236" d="M0,6.342s56.432-14.27,133.012,0" transform="matrix(0.996, -0.087, 0.087, 0.996, 511.94, 1559.105)" fill="none" stroke="#434c58" stroke-linecap="round" stroke-width="6"/>
    <path id="Caminho_235" data-name="Caminho 235" d="M1135.427,1489h-12.98l12.98,68.18v-27.522h27.664v-13.285h-27.664Z" transform="translate(-375.188 -1.844)" fill="#7f8fa4"/>
  </g>
</svg>
