<svg xmlns="http://www.w3.org/2000/svg" xmlns:xlink="http://www.w3.org/1999/xlink" width="430" height="932" viewBox="0 0 430 932">
  <defs>
    <clipPath id="clip-wallpaper">
      <rect width="430" height="932"/>
    </clipPath>
  </defs>
  <g id="wallpaper" clip-path="url(#clip-wallpaper)">
    <rect width="430" height="932" fill="#d3f36b"/>
    <g id="logmais" transform="translate(-387.939 -1046)">
      <path id="Subtração_8" data-name="Subtração 8" d="M99.625,46.605a31.274,31.274,0,0,1-4.968-.38,24.253,24.253,0,0,1-4.432-1.14,20.627,20.627,0,0,1-3.9-1.9,19.936,19.936,0,0,1-3.361-2.659,19.492,19.492,0,0,1-2.706-3.314,20.058,20.058,0,0,1-1.933-3.863,23.613,23.613,0,0,1-1.16-4.412,30.62,30.62,0,0,1-.387-4.962,29.152,29.152,0,0,1,.421-5.029A23.937,23.937,0,0,1,78.466,14.4a21.926,21.926,0,0,1,2.105-4.075,22.859,22.859,0,0,1,2.947-3.6A21.89,21.89,0,0,1,91.342,1.68,25.317,25.317,0,0,1,96.069.42,31.932,31.932,0,0,1,101.34,0a41.5,41.5,0,0,1,6.752.521,29.029,29.029,0,0,1,5.8,1.562v8.482a24.394,24.394,0,0,0-12.8-3.154,14.451,14.451,0,0,0-10.916,4.425c-2.794,2.936-4.21,6.866-4.21,11.682,0,4.917,1.277,8.8,3.8,11.529s6.022,4.119,10.411,4.119a15.367,15.367,0,0,0,6.737-1.317V27.9H97.665v-7.1H115.67V42.747a25.944,25.944,0,0,1-3.495,1.688,28.914,28.914,0,0,1-3.839,1.206A37.392,37.392,0,0,1,99.625,46.605ZM0,43.74H0V.735H8.727V38.582H25.783V41.4A182.151,182.151,0,0,0,0,43.74Zm62.731-.6h0c-9.347-1.018-18.39-1.611-26.878-1.765-.4-.369-.8-.762-1.183-1.169a21.274,21.274,0,0,1-4.49-7.288,23.885,23.885,0,0,1-1.122-4.31,29.3,29.3,0,0,1-.374-4.754,32.432,32.432,0,0,1,.382-5.062,25.8,25.8,0,0,1,1.145-4.561,22.409,22.409,0,0,1,1.909-4.059,21.878,21.878,0,0,1,2.673-3.558A20.4,20.4,0,0,1,38.1,3.72a19.582,19.582,0,0,1,3.809-2.067A21.725,21.725,0,0,1,46.221.413,27.126,27.126,0,0,1,51.037,0,25.254,25.254,0,0,1,55.61.4a20.439,20.439,0,0,1,4.1,1.2,18.7,18.7,0,0,1,3.635,2,19.793,19.793,0,0,1,3.166,2.807,21.378,21.378,0,0,1,4.4,7.322,24.563,24.563,0,0,1,1.1,4.341,30.389,30.389,0,0,1,.367,4.8A32.534,32.534,0,0,1,72,27.92a25.8,25.8,0,0,1-1.134,4.542,22.3,22.3,0,0,1-1.89,4.039,21.668,21.668,0,0,1-2.646,3.536,20.224,20.224,0,0,1-3.6,3.1ZM50.762,7.594a11.336,11.336,0,0,0-9.446,4.455A18.034,18.034,0,0,0,37.87,23.364a18,18,0,0,0,3.384,11.253,11.039,11.039,0,0,0,9.2,4.394,11.4,11.4,0,0,0,9.385-4.18c2.225-2.774,3.353-6.591,3.353-11.345,0-4.9-1.092-8.812-3.246-11.636A10.922,10.922,0,0,0,50.762,7.594Z" transform="translate(527.256 1486)" fill="#434c58"/>
      <g id="Grupo_2442" data-name="Grupo 2442" transform="translate(649.359 1486.765)">
        <path id="Caminho_237" data-name="Caminho 237" d="M0,0H8.667V45.122H0Z" transform="translate(18.227 0)" fill="#434c58"/>
        <rect id="Retângulo_2474" data-name="Retângulo 2474" width="8.667" height="45.122" transform="translate(45.122 18.227) rotate(90)" fill="#434c58"/>
      </g>
      <path id="Caminho_234" data-name="Caminho 234" d="M541,1679.558s37.323-9.437,87.97,0" transform="translate(-23.437 -147.718)" fill="none" stroke="#434c58" stroke-linecap="round" stroke-width="4"/>
      <path id="Caminho_236" data-name="Caminho 236" d="M0,4.194s37.323-9.438,87.97,0" transform="matrix(0.996, -0.087, 0.087, 0.996, 511.94, 1534.349)" fill="none" stroke="#434c58" stroke-linecap="round" stroke-width="4"/>
      <path id="Caminho_235" data-name="Caminho 235" d="M1131.031,1489h-8.585l8.585,45.093v-18.2h18.3V1507.1h-18.3Z" transform="translate(-454.874 -2.235)" fill="#7f8fa4"/>
    </g>
  </g>
</svg>
